<svg xmlns="http://www.w3.org/2000/svg" version="1.1" xmlns:xlink="http://www.w3.org/1999/xlink" xmlns:svgjs="http://svgjs.dev/svgjs" width="1000" height="1000" viewBox="0 0 1000 1000"><rect width="1000" height="1000" fill="#000000"></rect><g transform="matrix(0.7,0,0,0.7,149.57575757575756,416.94785439273244)"><svg viewBox="0 0 396 94" data-background-color="#c8c8c8" preserveAspectRatio="xMidYMid meet" height="237" width="1000" xmlns="http://www.w3.org/2000/svg" xmlns:xlink="http://www.w3.org/1999/xlink"><g id="tight-bounds" transform="matrix(1,0,0,1,0.2400000000000091,0.05787635372607269)"><svg viewBox="0 0 395.52 93.88424729254784" height="93.88424729254784" width="395.52"><g><svg viewBox="0 0 553.0467612750609 131.2762411506131" height="93.88424729254784" width="395.52"><g transform="matrix(1,0,0,1,157.52676127506092,37.83931836283277)"><svg viewBox="0 0 395.52 55.597604424947555" height="55.597604424947555" width="395.52"><g><svg viewBox="0 0 395.52 55.597604424947555" height="55.597604424947555" width="395.52"><g><svg viewBox="0 0 395.52 55.597604424947555" height="55.597604424947555" width="395.52"><g transform="matrix(1,0,0,1,0,0)"><svg width="395.52" viewBox="2.25 -36.45000076293945 262.1300048828125 36.85000228881836" height="55.597604424947555" data-palette-color="#6b7280"><g class="undefined-text-0" data-fill-palette-color="primary" id="text-0"><path d="M20 0.4L20 0.4Q17.25 0.4 14.6-0.3 11.95-1 10-2.25L10-2.25Q7.8-3.65 6.03-6.2 4.25-8.75 3.25-11.78 2.25-14.8 2.25-17.6L2.25-17.6Q2.25-21.35 3.85-24.9 5.45-28.45 8.35-31.35L8.35-31.35Q10.55-33.55 13.3-34.75L13.3-34.75Q16.55-36.1 19.85-36.1L19.85-36.1Q22.7-36.1 25.55-35L25.55-35Q27.4-34.3 28.7-33.23 30-32.15 31.55-30.4L31.55-30.4 33.05-28.55Q33.65-27.8 33.65-27L33.65-27Q33.65-26 32.85-25.25 32.05-24.5 31-24.5L31-24.5Q29.95-24.5 29.15-25.45L29.15-25.45 27.3-27.7Q26.6-28.45 25.65-29.18 24.7-29.9 23.75-30.3L23.75-30.3Q21.6-31.2 19.45-31.05L19.45-31.05Q14.9-30.65 11.8-27.7L11.8-27.7Q7.25-23.3 7.25-17.6L7.25-17.6Q7.25-14.55 8.88-11.23 10.5-7.9 12.7-6.45L12.7-6.45Q14.05-5.6 15.95-5.1 17.85-4.6 19.85-4.6L19.85-4.6Q25.9-4.6 27.75-7.95L27.75-7.95Q28.1-8.55 28.6-10.25L28.6-10.25 29.1-11.85Q29.4-12.65 30.03-13.1 30.65-13.55 31.35-13.55L31.35-13.55Q32.35-13.55 33.15-12.85 33.95-12.15 33.95-11.05L33.95-11.05Q33.95-10.6 33.8-10.15L33.8-10.15 33.45-9.1Q32.6-6.5 32.15-5.55L32.15-5.55Q30.6-2.85 27.8-1.4 25 0.05 21.4 0.35L21.4 0.35Q20.95 0.4 20 0.4L20 0.4ZM45.35-2.45L45.35-2.45Q45.35-1.4 44.6-0.7 43.85 0 42.8 0 41.75 0 41.05-0.75 40.35-1.5 40.35-2.55L40.35-2.55Q40.45-7.15 40.2-17.32 39.95-27.5 40.15-33.4L40.15-33.4Q40.2-34.4 40.95-35.13 41.7-35.85 42.72-35.8 43.75-35.75 44.47-35 45.2-34.25 45.15-33.2L45.15-33.2Q45-27.85 45.15-20.55L45.15-20.55Q56.95-20.95 62.45-20.9L62.45-20.9Q62.4-27.7 62.7-33.3L62.7-33.3Q62.75-34.35 63.52-35.02 64.3-35.7 65.35-35.65 66.4-35.6 67.07-34.83 67.75-34.05 67.7-33L67.7-33Q67.45-27.15 67.4-23.05L67.4-23.05Q67.4-18.1 67.52-11.93 67.65-5.75 67.65-2.5L67.65-2.5Q67.65-1.45 66.92-0.73 66.2 0 65.15 0 64.1 0 63.37-0.73 62.65-1.45 62.65-2.5L62.65-2.5Q62.65-4.25 62.5-15.9L62.5-15.9Q57.1-15.95 45.25-15.55L45.25-15.55Q45.45-7.1 45.35-2.45L45.35-2.45ZM100.6-0.2L100.6-0.2Q93.85-0.1 79.35-0.35L79.35-0.35Q78.35-0.35 77.62-1.1 76.9-1.85 76.9-2.85L76.9-2.85Q76.6-3.45 76.6-4.1L76.6-4.1Q76.7-7.5 76.7-13.9 76.7-20.3 76.75-22.6L76.75-22.6Q76.75-23.45 76.7-25.58 76.65-27.7 76.7-29.53 76.75-31.35 77-32.95L77-32.95Q77.1-33.65 77.6-34.2 78.1-34.75 78.8-34.95L78.8-34.95Q79.45-35.55 80.4-35.6L80.4-35.6Q84.1-35.7 90.97-35.75 97.85-35.8 100.35-35.8L100.35-35.8Q101.4-35.8 102.12-35.08 102.85-34.35 102.85-33.3 102.85-32.25 102.12-31.53 101.4-30.8 100.35-30.8L100.35-30.8Q97.7-30.8 91.42-30.75 85.15-30.7 81.75-30.65L81.75-30.65Q81.6-29.95 81.67-26.83 81.75-23.7 81.75-22.5L81.75-22.5 81.75-20.45Q84.2-20.6 86.97-20.6 89.75-20.6 93.27-20.55 96.8-20.5 98.5-20.5L98.5-20.5Q99.55-20.5 100.27-19.78 101-19.05 101-18 101-16.95 100.27-16.23 99.55-15.5 98.5-15.5L98.5-15.5Q96.75-15.5 93.22-15.55 89.7-15.6 86.95-15.6 84.2-15.6 81.7-15.45L81.7-15.45Q81.7-8.35 81.65-5.3L81.65-5.3Q93.85-5.1 100.5-5.2L100.5-5.2Q101.55-5.2 102.3-4.5 103.05-3.8 103.05-2.75 103.05-1.7 102.35-0.95 101.65-0.2 100.6-0.2L100.6-0.2ZM110.09-11.5L110.09-11.5Q109.04-11.45 108.34-12.03 107.64-12.6 107.57-13.63 107.49-14.65 108.09-15.35 108.69-16.05 109.69-16.15L109.69-16.15Q111.39-16.25 114.39-16.35 117.39-16.45 118.32-16.5 119.24-16.55 120.02-15.93 120.79-15.3 120.84-14.28 120.89-13.25 120.19-12.58 119.49-11.9 118.49-11.85L118.49-11.85Q117.49-11.8 114.64-11.7 111.79-11.6 110.09-11.5L110.09-11.5ZM143.34 0.4L143.34 0.4Q140.59 0.4 137.94-0.3 135.29-1 133.34-2.25L133.34-2.25Q131.14-3.65 129.37-6.2 127.59-8.75 126.59-11.78 125.59-14.8 125.59-17.6L125.59-17.6Q125.59-21.35 127.19-24.9 128.79-28.45 131.69-31.35L131.69-31.35Q133.89-33.55 136.64-34.75L136.64-34.75Q139.89-36.1 143.19-36.1L143.19-36.1Q146.04-36.1 148.89-35L148.89-35Q150.74-34.3 152.04-33.23 153.34-32.15 154.89-30.4L154.89-30.4 156.39-28.55Q156.99-27.8 156.99-27L156.99-27Q156.99-26 156.19-25.25 155.39-24.5 154.34-24.5L154.34-24.5Q153.29-24.5 152.49-25.45L152.49-25.45 150.64-27.7Q149.94-28.45 148.99-29.18 148.04-29.9 147.09-30.3L147.09-30.3Q144.94-31.2 142.79-31.05L142.79-31.05Q138.24-30.65 135.14-27.7L135.14-27.7Q130.59-23.3 130.59-17.6L130.59-17.6Q130.59-14.55 132.22-11.23 133.84-7.9 136.04-6.45L136.04-6.45Q137.39-5.6 139.29-5.1 141.19-4.6 143.19-4.6L143.19-4.6Q149.24-4.6 151.09-7.95L151.09-7.95Q151.44-8.55 151.94-10.25L151.94-10.25 152.44-11.85Q152.74-12.65 153.37-13.1 153.99-13.55 154.69-13.55L154.69-13.55Q155.69-13.55 156.49-12.85 157.29-12.15 157.29-11.05L157.29-11.05Q157.29-10.6 157.14-10.15L157.14-10.15 156.79-9.1Q155.94-6.5 155.49-5.55L155.49-5.55Q153.94-2.85 151.14-1.4 148.34 0.05 144.74 0.35L144.74 0.35Q144.29 0.4 143.34 0.4L143.34 0.4ZM174.49 0.15L174.49 0.15Q171.89-0.2 169.74-1.23 167.59-2.25 166.09-3.75 164.59-5.25 163.46-7.15 162.34-9.05 161.86-11.13 161.39-13.2 161.21-15.4 161.04-17.6 161.29-19.65L161.29-19.65Q161.59-22.25 162.46-24.7 163.34-27.15 164.84-29.33 166.34-31.5 168.31-33.02 170.29-34.55 172.94-35.25 175.59-35.95 178.24-36.05L178.24-36.05Q179.44-36.1 180.74-35.95L180.74-35.95Q183.19-35.65 184.69-35.15L184.69-35.15Q188.14-34 190.41-31.63 192.69-29.25 193.69-26.38 194.69-23.5 194.71-20.28 194.74-17.05 193.96-13.95 193.19-10.85 191.59-8 189.99-5.15 187.39-3.13 184.79-1.1 181.41-0.23 178.04 0.65 174.49 0.15L174.49 0.15ZM175.24-4.95L175.24-4.95Q179.89-4.1 183.89-6.9L183.89-6.9Q187.94-9.7 189.19-15.3L189.19-15.3Q189.94-18.7 189.54-21.73 189.14-24.75 187.44-27.03 185.74-29.3 183.34-30.25L183.34-30.25Q182.19-30.7 181.51-30.85 180.84-31 179.89-31L179.89-31Q179.14-31 178.24-31.05L178.24-31.05Q177.29-31.1 175.74-30.9L175.74-30.9Q172.89-30.55 169.89-27.38 166.89-24.2 166.34-19.1L166.34-19.1Q165.94-15.55 166.71-12.45 167.49-9.35 169.74-7.45L169.74-7.45Q171.94-5.6 175.24-4.95L175.24-4.95ZM204.64 0.1L204.64 0.1Q203.89 0.15 203.24-0.25L203.24-0.25Q202.44-0.5 201.96-1.18 201.49-1.85 201.49-2.7L201.49-2.7Q201.49-4.3 201.74-18.35L201.74-18.35Q201.79-20.65 201.59-25.7L201.59-25.7Q201.39-30.65 201.54-33.4L201.54-33.4Q201.59-34.45 202.36-35.15 203.14-35.85 204.14-35.8L204.14-35.8 204.34-35.8Q204.79-36.05 205.29-36.1L205.29-36.1Q207.59-36.3 208.94-36.38 210.29-36.45 212.74-36.45 215.19-36.45 216.94-36.13 218.69-35.8 220.81-35.05 222.94-34.3 224.59-33.1L224.59-33.1Q228.09-30.55 229.71-26.58 231.34-22.6 231.19-18.2L231.19-18.2Q231.04-13.95 229.29-10L229.29-10Q227.49-6.1 224.34-3.6L224.34-3.6Q220.59-0.6 214.19-0.1L214.19-0.1Q212.29 0.05 209.19 0.05L209.19 0.05Q205.84 0.05 204.64 0.1L204.64 0.1ZM206.54-4.95L209.19-4.95Q212.14-4.95 213.79-5.1L213.79-5.1Q218.34-5.45 220.94-7.5L220.94-7.5Q223.14-9.25 224.46-12.18 225.79-15.1 225.89-18.4L225.89-18.4Q226.04-21.7 224.89-24.5L224.89-24.5Q223.69-27.35 221.39-29L221.39-29Q219.54-30.35 216.99-30.95L216.99-30.95Q214.39-31.55 211.94-31.48 209.49-31.4 206.49-31.15L206.49-31.15Q206.44-29.7 206.59-25.9L206.59-25.9Q206.79-20.45 206.74-18.25L206.74-18.25Q206.74-16.75 206.69-14.08 206.64-11.4 206.59-9.15 206.54-6.9 206.54-4.95L206.54-4.95ZM261.93-0.2L261.93-0.2Q255.18-0.1 240.68-0.35L240.68-0.35Q239.68-0.35 238.96-1.1 238.23-1.85 238.23-2.85L238.23-2.85Q237.93-3.45 237.93-4.1L237.93-4.1Q238.03-7.5 238.03-13.9 238.03-20.3 238.08-22.6L238.08-22.6Q238.08-23.45 238.03-25.58 237.98-27.7 238.03-29.53 238.08-31.35 238.33-32.95L238.33-32.95Q238.43-33.65 238.93-34.2 239.43-34.75 240.13-34.95L240.13-34.95Q240.78-35.55 241.73-35.6L241.73-35.6Q245.43-35.7 252.31-35.75 259.18-35.8 261.68-35.8L261.68-35.8Q262.73-35.8 263.46-35.08 264.18-34.35 264.18-33.3 264.18-32.25 263.46-31.53 262.73-30.8 261.68-30.8L261.68-30.8Q259.03-30.8 252.76-30.75 246.48-30.7 243.08-30.65L243.08-30.65Q242.93-29.95 243.01-26.83 243.08-23.7 243.08-22.5L243.08-22.5 243.08-20.45Q245.53-20.6 248.31-20.6 251.08-20.6 254.61-20.55 258.13-20.5 259.83-20.5L259.83-20.5Q260.88-20.5 261.61-19.78 262.33-19.05 262.33-18 262.33-16.95 261.61-16.23 260.88-15.5 259.83-15.5L259.83-15.5Q258.08-15.5 254.56-15.55 251.03-15.6 248.28-15.6 245.53-15.6 243.03-15.45L243.03-15.45Q243.03-8.35 242.98-5.3L242.98-5.3Q255.18-5.1 261.83-5.2L261.83-5.2Q262.88-5.2 263.63-4.5 264.38-3.8 264.38-2.75 264.38-1.7 263.68-0.95 262.98-0.2 261.93-0.2L261.93-0.2Z" fill="#ffffff" data-fill-palette-color="primary"></path></g></svg></g></svg></g></svg></g></svg></g><g><svg viewBox="0 0 131.2762411506131 131.2762411506131" height="131.2762411506131" width="131.2762411506131"><g><svg></svg></g><g id="icon-0"><svg viewBox="0 0 131.2762411506131 131.2762411506131" height="131.2762411506131" width="131.2762411506131"><g><path d="M0 65.638c0-36.251 29.387-65.638 65.638-65.638 36.251 0 65.638 29.387 65.638 65.638 0 36.251-29.387 65.638-65.638 65.638-36.251 0-65.638-29.387-65.638-65.638zM65.638 126.262c33.482 0 60.624-27.142 60.624-60.624 0-33.482-27.142-60.624-60.624-60.624-33.482 0-60.624 27.142-60.624 60.624 0 33.482 27.142 60.624 60.624 60.624z" data-fill-palette-color="accent" fill="#ffffff" stroke="transparent"></path></g><g transform="matrix(1,0,0,1,39.15473152110589,31.41224089252671)"><svg viewBox="0 0 52.966778108401314 68.45175936555967" height="68.45175936555967" width="52.966778108401314"><g><svg xmlns="http://www.w3.org/2000/svg" xmlns:xlink="http://www.w3.org/1999/xlink" version="1.1" x="0" y="0" viewBox="12.982999801635742 1 75.68599700927734 97.81300354003906" enable-background="new 0 0 100 100" xml:space="preserve" height="68.45175936555967" width="52.966778108401314" class="icon-s-0" data-fill-palette-color="accent" id="s-0"><g fill="#74744c" data-fill-palette-color="accent"><polygon fill-rule="evenodd" clip-rule="evenodd" points="12.983,10.59 30.001,98.813 24.129,39.764 53.15,37.872 53.096,27.989    64.549,1 53.622,18.977  " fill="#ffffff" data-fill-palette-color="accent"></polygon><polygon fill-rule="evenodd" clip-rule="evenodd" points="59.389,54.548 64.549,1.007 55.809,40.723 36.197,41.768 37.767,62.23    30.001,98.813 42.058,58.914  " fill="#ffffff" data-fill-palette-color="accent"></polygon><polygon fill-rule="evenodd" clip-rule="evenodd" points="62.8,67.182 63.349,56.729 47.37,60.484 47.338,72.281 30.001,98.813    51.681,71.197  " fill="#ffffff" data-fill-palette-color="accent"></polygon><polygon fill-rule="evenodd" clip-rule="evenodd" points="65.711,62.394 80.552,57.663 82.061,45.131 66.162,47.226  " fill="#ffffff" data-fill-palette-color="accent"></polygon><polygon fill-rule="evenodd" clip-rule="evenodd" points="72.07,44.502 83.058,43.085 84.639,32.807 76.56,32.434 64.549,1    72.979,31.967  " fill="#ffffff" data-fill-palette-color="accent"></polygon><polygon fill-rule="evenodd" clip-rule="evenodd" points="87.413,31.294 88.669,21.788 79.125,19.094 64.549,1 79.032,23.437    78.61,30.437  " fill="#ffffff" data-fill-palette-color="accent"></polygon></g></svg></g></svg></g></svg></g></svg></g></svg></g><defs></defs></svg><rect width="395.52" height="93.88424729254784" fill="none" stroke="none" visibility="hidden"></rect></g></svg></g></svg>